<?xml version="1.0" encoding="UTF-8" standalone="no"?>
<!DOCTYPE svg PUBLIC "-//W3C//DTD SVG 1.1//EN" "http://www.w3.org/Graphics/SVG/1.1/DTD/svg11.dtd">
<svg width="100%" height="100%" viewBox="0 0 2027 2027" version="1.1" xmlns="http://www.w3.org/2000/svg" xmlns:xlink="http://www.w3.org/1999/xlink" xml:space="preserve" xmlns:serif="http://www.serif.com/" style="fill-rule:evenodd;clip-rule:evenodd;stroke-linecap:square;">
    <g transform="matrix(1,0,0,1,-9380,-8.52651e-14)">
        <g id="Artboard4" transform="matrix(0.597935,0,0,0.802454,3678.69,174.133)">
            <rect x="9535" y="-217" width="3390" height="2526" style="fill:none;"/>
            <clipPath id="_clip1">
                <rect x="9535" y="-217" width="3390" height="2526"/>
            </clipPath>
            <g clip-path="url(#_clip1)">
                <g id="SheildBG" transform="matrix(1.74025,0,0,1.29671,-1962.81,-298.823)">
                    <path d="M6607,102.4C6864.2,50 8297.8,50 8555,102.4L8555,921.6C8555,1168.8 8446.77,1371.37 8297.8,1536C8135.47,1715.4 7581,1998 7581,1998C7581,1998 7026.53,1715.4 6864.2,1536C6715.23,1371.37 6607,1168.8 6607,921.6L6607,102.4Z" style="fill:rgb(124,49,49);"/>
                    <path d="M6607,102.4C6864.2,50 8297.8,50 8555,102.4L8555,921.6C8555,1168.8 8446.77,1371.37 8297.8,1536C8135.47,1715.4 7581,1998 7581,1998C7581,1998 7026.53,1715.4 6864.2,1536C6715.23,1371.37 6607,1168.8 6607,921.6L6607,102.4ZM6693.49,177.102C7040.14,139.03 8121.86,139.03 8468.51,177.102C8468.51,177.102 8468.51,921.6 8468.51,921.6C8468.51,1145.73 8368.73,1328.7 8233.67,1477.97C8102.95,1622.42 7707.39,1834.84 7581,1900.71C7454.61,1834.84 7059.05,1622.42 6928.33,1477.97C6793.27,1328.7 6693.49,1145.73 6693.49,921.6C6693.49,921.6 6693.49,177.102 6693.49,177.102L6693.49,177.102Z" style="fill:white;"/>
                </g>
                <g transform="matrix(1.76803,0,0,1.31741,-7146.02,-337.963)">
                    <path d="M10311,1254L10422,1175L10393.5,1013.5L10499,1013.5L10343,818L10095,857L9843,1013.5L9943,1229L10311,1254L10236,1374.49L10301,1389L10219.9,1475.71L10282,1484L10204,1572L10393.5,1698L10728,1490C10875.7,1395.39 11022,1202 10898,1078L10826,1013.5L10870,965L10751,870L10848,845L10491.2,519.696L10341.2,322.624L10303.8,558.533L10184.5,399.135L10183,672L10104,738L10095.1,845.721" style="fill:none;stroke:rgb(235,235,235);stroke-width:73.5px;"/>
                </g>
            </g>
        </g>
        <g id="LogoText">
        </g>
    </g>
</svg>
